# xmcd
# 
# Track frame offsets:
#     150
#     9739
#     29968
#     41030
#     50254
#     59698
#     72357
#     83673
#     93422
#     101729
#     115219
#     127396
#     137527
#     147513
#     159397
#     179892
#     191271
#     201314
#     215382
#     230088
#     240971
#     251605
#     263216
#     274006
#     282912
#     293131
#     301146
#     310997
#     319940
#     331991
# 
# Disc length: 4523
# 
# Revision: 4
# Processed by: cddbd v1.5.2PL0 Copyright (c) Steve Scherf et al.
# Submitted via: fre:ac v1.0.27
# 
DISCID=d411a91e
DTITLE=Elvis Presley - Greatest Hits - Disc 1
DYEAR=2001
DGENRE=Rock
TTITLE0=King Of The Whole Wide World
TTITLE1=Suspicious Minds
TTITLE2=Jailhouse Rock
TTITLE3=Don't be Cruel
TTITLE4=I Need Your Love Tonight
TTITLE5=Kiss Me Quick
TTITLE6=One Night
TTITLE7=She's Not You
TTITLE8=I Got Stung
TTITLE9=Such A Night
TTITLE10=Love Me Tender
TTITLE11=Wear My Ring Around Your Neck
TTITLE12=Good Rockin' Tonight
TTITLE13=A Fool Such As I
TTITLE14=I Just Can't Help Believin'
TTITLE15=Little Sister
TTITLE16=A Big Hunk O' Love
TTITLE17=Are You Lonesome Tonight
TTITLE18=It's Now Or Never (O Sole Mio)
TTITLE19=Good Luck Charm
TTITLE20=Devil In Disguise
TTITLE21=Suspicion
TTITLE22=Ain't That Lovin' You Baby
TTITLE23=Rock-A-Hula Baby
TTITLE24=Hound Dog
TTITLE25=Teddy Bear
TTITLE26=Treat Me Nice
TTITLE27=Tutti Frutti
TTITLE28=A Mess Of Blues
TTITLE29=Follow That Dream
EXTD=
EXTT0=
EXTT1=
EXTT2=
EXTT3=
EXTT4=
EXTT5=
EXTT6=
EXTT7=
EXTT8=
EXTT9=
EXTT10=
EXTT11=
EXTT12=
EXTT13=
EXTT14=
EXTT15=
EXTT16=
EXTT17=
EXTT18=
EXTT19=
EXTT20=
EXTT21=
EXTT22=
EXTT23=
EXTT24=
EXTT25=
EXTT26=
EXTT27=
EXTT28=
EXTT29=
PLAYORDER=
